<svg width="50" height="50" viewBox="0 0 114 128" fill="none" xmlns="http://www.w3.org/2000/svg">
<title>formspree</title><g>
<path fill-rule="evenodd" clip-rule="evenodd" d="M0.470963 11.5606C0.470963 5.80197 5.13927 1.13367 10.8979 1.13367H101.265C107.023 1.13367 111.692 5.80197 111.692 11.5606V26.4563C111.692 32.2149 107.023 36.8832 101.265 36.8832H10.8979C5.13927 36.8832 0.470963 32.2149 0.470963 26.4563V11.5606ZM0.470965 56.2477C0.470965 50.489 5.13927 45.8207 10.8979 45.8207H101.265C107.023 45.8207 111.692 50.489 111.692 56.2477V71.1433C111.692 76.902 107.023 81.5703 101.265 81.5703H10.8979C5.13928 81.5703 0.470965 76.902 0.470965 71.1433V56.2477ZM10.8979 90.5075C5.13927 90.5075 0.470965 95.1758 0.470965 100.935V115.83C0.470965 121.589 5.13926 126.257 10.8979 126.257H52.6057C58.3644 126.257 63.0327 121.589 63.0327 115.83V100.935C63.0327 95.1758 58.3644 90.5075 52.6057 90.5075H10.8979Z" fill="url(#paint0_linear_402_2)"/>
</g>
<defs>
<linearGradient id="paint0_linear_402_2" x1="0.470963" y1="1.13367" x2="125.595" y2="126.257" gradientUnits="userSpaceOnUse">
<stop stop-color="#EA1330"/>
<stop offset="1" stop-color="#AF041A"/>
</linearGradient>
</defs>
</svg>
