<svg
  width="110.14971mm"
  height="110.14971mm"
  viewBox="0 0 110.14971 110.14971"
  xmlns="http://www.w3.org/2000/svg"
>
<title>Maplibre GL</title>
  <g transform="translate(-49.925144,-93.425148)">
    <rect
      x="49.925144"
      y="93.425148"
      width="110.14971"
      height="110.14971"
      ry="23.5"
      style="fill:#295daa;fill-opacity:1;stroke-width:0.264583"
    />
    <path
      d="m 105.19551,109.31159 c -13.050838,-0.0847 -23.732067,9.79276 -23.811706,22.0173 -0.07038,10.82464 5.282141,16.10916 11.078368,21.83157 4.040982,3.98939 8.297338,8.1915 11.082068,14.63199 0.18786,0.15266 0.31354,0.25453 0.36751,0.30268 a 1.3663083,1.3663083 0 0 0 0.89906,0.34025 1.368425,1.368425 0 0 0 0.90381,-0.32834 c 0.0145,-0.013 0.0413,-0.0244 0.0741,-0.0384 0.09,-0.0386 0.22675,-0.0974 0.29739,-0.26008 2.77548,-6.37911 7.09242,-10.5246 11.21516,-14.4833 5.87084,-5.63747 11.34745,-10.8966 11.41757,-21.68842 0.0796,-12.22481 -10.47221,-22.24008 -23.52331,-22.32528 z m -0.22754,35.01734 c 6.46218,0.0421 11.73586,-5.24139 11.77845,-11.80094 0.0426,-6.55955 -5.16175,-11.91128 -11.6242,-11.95335 -6.462448,-0.0421 -11.735858,5.2414 -11.778721,11.80095 -0.0426,6.55955 5.161757,11.91127 11.624201,11.95334 z"
      style="fill:#82b4fe;fill-rule:evenodd;clip-rule:evenodd;stroke-width:0.264583"
    />
    <path
      d="m 96.509239,172.21893 c -1.078177,-0.007 -1.960033,1.18533 -1.969558,2.66303 l -0.04868,7.4795 c -0.0098,1.4777 0.856457,2.68129 1.934898,2.68843 l 16.506031,0.10743 c 1.07818,0.007 1.96003,-1.18534 1.96956,-2.66304 l 0.0487,-7.4795 c 0.01,-1.47796 -0.85646,-2.68155 -1.9349,-2.68843 z"
      style="fill:#ffffff;fill-rule:evenodd;clip-rule:evenodd;stroke-width:0.264583"
    />
  </g>
</svg>